<svg width="800" height="460" viewBox="0 0 800 460" xmlns="http://www.w3.org/2000/svg">
  <style>
  text       { font-family: ui-monospace, SFMono-Regular, 'SF Mono', Menlo, Consolas, monospace; }
  .t-primary { fill: #e6edf3; }
  .t-dim     { fill: #8b949e; }
  .sep       { stroke: #30363d; fill: none; }
  .bg-card   { fill: #161b22; }
  @media (prefers-color-scheme: light) {
    .t-primary { fill: #1f2328; }
    .t-dim     { fill: #656d76; }
    .sep       { stroke: #d0d7de; fill: none; }
    .bg-card   { fill: #f6f8fa; }
  }
</style>
  <defs>
    <linearGradient id="hdrg" x1="0%" y1="0%" x2="100%" y2="0%">
      <stop offset="0%" stop-color="#388bfd" stop-opacity="0.8"/>
      <stop offset="100%" stop-color="#388bfd" stop-opacity="0"/>
    </linearGradient>
  </defs>

  <!-- header -->
  <text x="36" y="46" class="t-dim" font-size="11" letter-spacing="3">THE NUMBERS</text>
  <text x="764" y="46" class="t-dim" font-size="11" letter-spacing="2" text-anchor="end">LAST 365 DAYS</text>
  <rect x="36" y="54" width="220" height="1" fill="url(#hdrg)"/>

  <!-- ── row 1: 3 stat cards ─────────────────────────────────────────── -->
  <!-- COMMITS -->
  <rect x="36" y="68" width="224" height="106" rx="8" class="bg-card"/>
  <text x="148" y="130" class="t-primary" font-size="52" font-weight="700"
        text-anchor="middle">1,138</text>
  <text x="148" y="150" class="t-dim" font-size="9" text-anchor="middle"
        letter-spacing="3">COMMITS</text>

  <!-- PEAK HOUR -->
  <rect x="270" y="68" width="260" height="106" rx="8" class="bg-card"/>
  <text x="400" y="122" fill="#388bfd" font-size="38" font-weight="700"
        text-anchor="middle">2 PM</text>
  <text x="400" y="143" class="t-dim" font-size="9" text-anchor="middle"
        letter-spacing="3">PEAK HOUR</text>
  <text x="400" y="160" fill="#a371f7" font-size="10" text-anchor="middle"
        >— afternoon grind —</text>

  <!-- MOST ACTIVE DAY -->
  <rect x="540" y="68" width="224" height="106" rx="8" class="bg-card"/>
  <text x="652" y="120" fill="#f0883e" font-size="22" font-weight="700"
        text-anchor="middle">Sunday</text>
  <text x="652" y="143" class="t-dim" font-size="9" text-anchor="middle"
        letter-spacing="2">MOST ACTIVE</text>

  <!-- vibe quote -->
  <text x="400" y="204" class="t-dim" font-size="13" text-anchor="middle"
        font-style="italic">&quot;coding through work hours.&quot;</text>

  <!-- ── separator ───────────────────────────────────────────────────── -->
  <line x1="36" y1="216" x2="764" y2="216" class="sep" stroke-width="1"/>

  <!-- ── row 2: night% + weekend% cards ─────────────────────────────── -->
  <rect x="36" y="224" width="352" height="78" rx="8" class="bg-card"/>
  <text x="212" y="270" fill="#3fb950" font-size="34" font-weight="700"
        text-anchor="middle">19%</text>
  <text x="212" y="289" class="t-dim" font-size="10" text-anchor="middle"
        letter-spacing="2">NIGHT COMMITS</text>

  <rect x="400" y="224" width="364" height="78" rx="8" class="bg-card"/>
  <text x="582" y="270" fill="#f0883e" font-size="34" font-weight="700"
        text-anchor="middle">30%</text>
  <text x="582" y="289" class="t-dim" font-size="10" text-anchor="middle"
        letter-spacing="2">WEEKEND COMMITS</text>

  <!-- ── hourly bar chart ─────────────────────────────────────────────── -->
  <line x1="36" y1="316" x2="764" y2="316" class="sep" stroke-width="1"/>
  <text x="36" y="334" class="t-dim" font-size="9" letter-spacing="2">HOURLY ACTIVITY</text>
  <line x1="36" y1="340" x2="764" y2="340" class="sep" stroke-width="1" opacity="0.4"/>
<rect x="43" y="371" width="24" height="7" fill="#388bfd" rx="3" opacity="0.3"/>
<rect x="73" y="375" width="24" height="3" fill="#388bfd" rx="3" opacity="0.3"/>
<rect x="103" y="373" width="24" height="5" fill="#388bfd" rx="3" opacity="0.3"/>
<rect x="133" y="373" width="24" height="5" fill="#388bfd" rx="3" opacity="0.3"/>
<rect x="163" y="367" width="24" height="11" fill="#388bfd" rx="3" opacity="0.3"/>
<rect x="193" y="358" width="24" height="20" fill="#388bfd" rx="3" opacity="0.3"/>
<rect x="223" y="357" width="24" height="21" fill="#388bfd" rx="3" opacity="0.3"/>
<rect x="253" y="366" width="24" height="12" fill="#388bfd" rx="3" opacity="0.3"/>
<rect x="283" y="365" width="24" height="13" fill="#388bfd" rx="3" opacity="0.3"/>
<rect x="313" y="364" width="24" height="14" fill="#388bfd" rx="3" opacity="0.3"/>
<rect x="343" y="359" width="24" height="19" fill="#388bfd" rx="3" opacity="0.3"/>
<rect x="373" y="360" width="24" height="18" fill="#388bfd" rx="3" opacity="0.3"/>
<rect x="403" y="364" width="24" height="14" fill="#388bfd" rx="3" opacity="0.3"/>
<rect x="433" y="340" width="24" height="38" fill="#388bfd" rx="3" opacity="0.3"/>
<rect x="463" y="326" width="24" height="52" fill="#388bfd" rx="3" opacity="1"/>
<text x="475" y="320" class="t-dim" font-size="9" text-anchor="middle" letter-spacing="1">PEAK</text>
<rect x="493" y="329" width="24" height="49" fill="#388bfd" rx="3" opacity="0.3"/>
<rect x="523" y="349" width="24" height="29" fill="#388bfd" rx="3" opacity="0.3"/>
<rect x="553" y="367" width="24" height="11" fill="#388bfd" rx="3" opacity="0.3"/>
<rect x="583" y="362" width="24" height="16" fill="#388bfd" rx="3" opacity="0.3"/>
<rect x="613" y="352" width="24" height="26" fill="#388bfd" rx="3" opacity="0.3"/>
<rect x="643" y="357" width="24" height="21" fill="#388bfd" rx="3" opacity="0.3"/>
<rect x="673" y="364" width="24" height="14" fill="#388bfd" rx="3" opacity="0.3"/>
<rect x="703" y="360" width="24" height="18" fill="#388bfd" rx="3" opacity="0.3"/>
<rect x="733" y="361" width="24" height="17" fill="#388bfd" rx="3" opacity="0.3"/>
<text x="55" y="394" class="t-dim" font-size="10" text-anchor="middle">00</text>
<text x="235" y="394" class="t-dim" font-size="10" text-anchor="middle">06</text>
<text x="415" y="394" class="t-dim" font-size="10" text-anchor="middle">12</text>
<text x="595" y="394" class="t-dim" font-size="10" text-anchor="middle">18</text>
<text x="745" y="394" class="t-dim" font-size="10" text-anchor="middle">23</text>

</svg>