<svg width="800" height="235" viewBox="0 0 800 235" xmlns="http://www.w3.org/2000/svg">
  <defs>
    <filter id="glow2">
      <feGaussianBlur stdDeviation="2.5" result="b"/>
      <feMerge><feMergeNode in="b"/><feMergeNode in="SourceGraphic"/></feMerge>
    </filter>
  </defs>

  <rect width="800" height="235" fill="#010409" rx="12"/>
  <rect x="1" y="1" width="798" height="233" fill="none" stroke="#21262d" stroke-width="1" rx="11"/>

  <text x="36" y="38" font-family="ui-monospace, SFMono-Regular, 'SF Mono', Menlo, Consolas, monospace" font-size="11" fill="#8b949e" letter-spacing="3">THE GRIND</text>
  <text x="764" y="38" font-family="ui-monospace, SFMono-Regular, 'SF Mono', Menlo, Consolas, monospace" font-size="11" fill="#8b949e" letter-spacing="2" text-anchor="end">365 DAYS</text>
  <rect x="36" y="48" width="110" height="1" fill="#388bfd" opacity="0.4"/>

  <text x="52" y="64" font-family="ui-monospace, SFMono-Regular, 'SF Mono', Menlo, Consolas, monospace" font-size="9" fill="#8b949e">May</text>
  <text x="80" y="64" font-family="ui-monospace, SFMono-Regular, 'SF Mono', Menlo, Consolas, monospace" font-size="9" fill="#8b949e">Jun</text>
  <text x="136" y="64" font-family="ui-monospace, SFMono-Regular, 'SF Mono', Menlo, Consolas, monospace" font-size="9" fill="#8b949e">Jul</text>
  <text x="192" y="64" font-family="ui-monospace, SFMono-Regular, 'SF Mono', Menlo, Consolas, monospace" font-size="9" fill="#8b949e">Aug</text>
  <text x="262" y="64" font-family="ui-monospace, SFMono-Regular, 'SF Mono', Menlo, Consolas, monospace" font-size="9" fill="#8b949e">Sep</text>
  <text x="318" y="64" font-family="ui-monospace, SFMono-Regular, 'SF Mono', Menlo, Consolas, monospace" font-size="9" fill="#8b949e">Oct</text>
  <text x="374" y="64" font-family="ui-monospace, SFMono-Regular, 'SF Mono', Menlo, Consolas, monospace" font-size="9" fill="#8b949e">Nov</text>
  <text x="444" y="64" font-family="ui-monospace, SFMono-Regular, 'SF Mono', Menlo, Consolas, monospace" font-size="9" fill="#8b949e">Dec</text>
  <text x="500" y="64" font-family="ui-monospace, SFMono-Regular, 'SF Mono', Menlo, Consolas, monospace" font-size="9" fill="#8b949e">Jan</text>
  <text x="570" y="64" font-family="ui-monospace, SFMono-Regular, 'SF Mono', Menlo, Consolas, monospace" font-size="9" fill="#8b949e">Feb</text>
  <text x="626" y="64" font-family="ui-monospace, SFMono-Regular, 'SF Mono', Menlo, Consolas, monospace" font-size="9" fill="#8b949e">Mar</text>
  <text x="682" y="64" font-family="ui-monospace, SFMono-Regular, 'SF Mono', Menlo, Consolas, monospace" font-size="9" fill="#8b949e">Apr</text>
  <text x="738" y="64" font-family="ui-monospace, SFMono-Regular, 'SF Mono', Menlo, Consolas, monospace" font-size="9" fill="#8b949e">May</text>

  <text x="45" y="97" font-family="ui-monospace, SFMono-Regular, 'SF Mono', Menlo, Consolas, monospace" font-size="9" fill="#8b949e" text-anchor="end">Mon</text>
  <text x="45" y="125" font-family="ui-monospace, SFMono-Regular, 'SF Mono', Menlo, Consolas, monospace" font-size="9" fill="#8b949e" text-anchor="end">Wed</text>
  <text x="45" y="153" font-family="ui-monospace, SFMono-Regular, 'SF Mono', Menlo, Consolas, monospace" font-size="9" fill="#8b949e" text-anchor="end">Fri</text>

  <rect x="52" y="72" width="11" height="11" fill="#161b22" rx="2"/>
  <rect x="52" y="86" width="11" height="11" fill="#161b22" rx="2"/>
  <rect x="52" y="100" width="11" height="11" fill="#161b22" rx="2"/>
  <rect x="52" y="114" width="11" height="11" fill="#161b22" rx="2"/>
  <rect x="52" y="128" width="11" height="11" fill="#161b22" rx="2"/>
  <rect x="52" y="142" width="11" height="11" fill="#161b22" rx="2"/>
  <rect x="52" y="156" width="11" height="11" fill="#161b22" rx="2"/>
  <rect x="66" y="72" width="11" height="11" fill="#161b22" rx="2"/>
  <rect x="66" y="86" width="11" height="11" fill="#161b22" rx="2"/>
  <rect x="66" y="100" width="11" height="11" fill="#161b22" rx="2"/>
  <rect x="66" y="114" width="11" height="11" fill="#161b22" rx="2"/>
  <rect x="66" y="128" width="11" height="11" fill="#161b22" rx="2"/>
  <rect x="66" y="142" width="11" height="11" fill="#161b22" rx="2"/>
  <rect x="66" y="156" width="11" height="11" fill="#161b22" rx="2"/>
  <rect x="80" y="72" width="11" height="11" fill="#161b22" rx="2"/>
  <rect x="80" y="86" width="11" height="11" fill="#161b22" rx="2"/>
  <rect x="80" y="100" width="11" height="11" fill="#161b22" rx="2"/>
  <rect x="80" y="114" width="11" height="11" fill="#161b22" rx="2"/>
  <rect x="80" y="128" width="11" height="11" fill="#161b22" rx="2"/>
  <rect x="80" y="142" width="11" height="11" fill="#161b22" rx="2"/>
  <rect x="80" y="156" width="11" height="11" fill="#161b22" rx="2"/>
  <rect x="94" y="72" width="11" height="11" fill="#161b22" rx="2"/>
  <rect x="94" y="86" width="11" height="11" fill="#161b22" rx="2"/>
  <rect x="94" y="100" width="11" height="11" fill="#161b22" rx="2"/>
  <rect x="94" y="114" width="11" height="11" fill="#161b22" rx="2"/>
  <rect x="94" y="128" width="11" height="11" fill="#161b22" rx="2"/>
  <rect x="94" y="142" width="11" height="11" fill="#161b22" rx="2"/>
  <rect x="94" y="156" width="11" height="11" fill="#161b22" rx="2"/>
  <rect x="108" y="72" width="11" height="11" fill="#161b22" rx="2"/>
  <rect x="108" y="86" width="11" height="11" fill="#161b22" rx="2"/>
  <rect x="108" y="100" width="11" height="11" fill="#161b22" rx="2"/>
  <rect x="108" y="114" width="11" height="11" fill="#161b22" rx="2"/>
  <rect x="108" y="128" width="11" height="11" fill="#161b22" rx="2"/>
  <rect x="108" y="142" width="11" height="11" fill="#161b22" rx="2"/>
  <rect x="108" y="156" width="11" height="11" fill="#161b22" rx="2"/>
  <rect x="122" y="72" width="11" height="11" fill="#161b22" rx="2"/>
  <rect x="122" y="86" width="11" height="11" fill="#161b22" rx="2"/>
  <rect x="122" y="100" width="11" height="11" fill="#161b22" rx="2"/>
  <rect x="122" y="114" width="11" height="11" fill="#161b22" rx="2"/>
  <rect x="122" y="128" width="11" height="11" fill="#161b22" rx="2"/>
  <rect x="122" y="142" width="11" height="11" fill="#161b22" rx="2"/>
  <rect x="122" y="156" width="11" height="11" fill="#161b22" rx="2"/>
  <rect x="136" y="72" width="11" height="11" fill="#161b22" rx="2"/>
  <rect x="136" y="86" width="11" height="11" fill="#161b22" rx="2"/>
  <rect x="136" y="100" width="11" height="11" fill="#161b22" rx="2"/>
  <rect x="136" y="114" width="11" height="11" fill="#161b22" rx="2"/>
  <rect x="136" y="128" width="11" height="11" fill="#161b22" rx="2"/>
  <rect x="136" y="142" width="11" height="11" fill="#161b22" rx="2"/>
  <rect x="136" y="156" width="11" height="11" fill="#161b22" rx="2"/>
  <rect x="150" y="72" width="11" height="11" fill="#161b22" rx="2"/>
  <rect x="150" y="86" width="11" height="11" fill="#161b22" rx="2"/>
  <rect x="150" y="100" width="11" height="11" fill="#161b22" rx="2"/>
  <rect x="150" y="114" width="11" height="11" fill="#161b22" rx="2"/>
  <rect x="150" y="128" width="11" height="11" fill="#161b22" rx="2"/>
  <rect x="150" y="142" width="11" height="11" fill="#161b22" rx="2"/>
  <rect x="150" y="156" width="11" height="11" fill="#161b22" rx="2"/>
  <rect x="164" y="72" width="11" height="11" fill="#161b22" rx="2"/>
  <rect x="164" y="86" width="11" height="11" fill="#161b22" rx="2"/>
  <rect x="164" y="100" width="11" height="11" fill="#161b22" rx="2"/>
  <rect x="164" y="114" width="11" height="11" fill="#161b22" rx="2"/>
  <rect x="164" y="128" width="11" height="11" fill="#161b22" rx="2"/>
  <rect x="164" y="142" width="11" height="11" fill="#161b22" rx="2"/>
  <rect x="164" y="156" width="11" height="11" fill="#161b22" rx="2"/>
  <rect x="178" y="72" width="11" height="11" fill="#161b22" rx="2"/>
  <rect x="178" y="86" width="11" height="11" fill="#161b22" rx="2"/>
  <rect x="178" y="100" width="11" height="11" fill="#161b22" rx="2"/>
  <rect x="178" y="114" width="11" height="11" fill="#161b22" rx="2"/>
  <rect x="178" y="128" width="11" height="11" fill="#161b22" rx="2"/>
  <rect x="178" y="142" width="11" height="11" fill="#161b22" rx="2"/>
  <rect x="178" y="156" width="11" height="11" fill="#161b22" rx="2"/>
  <rect x="192" y="72" width="11" height="11" fill="#161b22" rx="2"/>
  <rect x="192" y="86" width="11" height="11" fill="#161b22" rx="2"/>
  <rect x="192" y="100" width="11" height="11" fill="#161b22" rx="2"/>
  <rect x="192" y="114" width="11" height="11" fill="#161b22" rx="2"/>
  <rect x="192" y="128" width="11" height="11" fill="#161b22" rx="2"/>
  <rect x="192" y="142" width="11" height="11" fill="#161b22" rx="2"/>
  <rect x="192" y="156" width="11" height="11" fill="#161b22" rx="2"/>
  <rect x="206" y="72" width="11" height="11" fill="#161b22" rx="2"/>
  <rect x="206" y="86" width="11" height="11" fill="#161b22" rx="2"/>
  <rect x="206" y="100" width="11" height="11" fill="#161b22" rx="2"/>
  <rect x="206" y="114" width="11" height="11" fill="#161b22" rx="2"/>
  <rect x="206" y="128" width="11" height="11" fill="#161b22" rx="2"/>
  <rect x="206" y="142" width="11" height="11" fill="#161b22" rx="2"/>
  <rect x="206" y="156" width="11" height="11" fill="#161b22" rx="2"/>
  <rect x="220" y="72" width="11" height="11" fill="#161b22" rx="2"/>
  <rect x="220" y="86" width="11" height="11" fill="#161b22" rx="2"/>
  <rect x="220" y="100" width="11" height="11" fill="#161b22" rx="2"/>
  <rect x="220" y="114" width="11" height="11" fill="#161b22" rx="2"/>
  <rect x="220" y="128" width="11" height="11" fill="#161b22" rx="2"/>
  <rect x="220" y="142" width="11" height="11" fill="#161b22" rx="2"/>
  <rect x="220" y="156" width="11" height="11" fill="#161b22" rx="2"/>
  <rect x="234" y="72" width="11" height="11" fill="#161b22" rx="2"/>
  <rect x="234" y="86" width="11" height="11" fill="#161b22" rx="2"/>
  <rect x="234" y="100" width="11" height="11" fill="#161b22" rx="2"/>
  <rect x="234" y="114" width="11" height="11" fill="#161b22" rx="2"/>
  <rect x="234" y="128" width="11" height="11" fill="#161b22" rx="2"/>
  <rect x="234" y="142" width="11" height="11" fill="#161b22" rx="2"/>
  <rect x="234" y="156" width="11" height="11" fill="#161b22" rx="2"/>
  <rect x="248" y="72" width="11" height="11" fill="#161b22" rx="2"/>
  <rect x="248" y="86" width="11" height="11" fill="#161b22" rx="2"/>
  <rect x="248" y="100" width="11" height="11" fill="#161b22" rx="2"/>
  <rect x="248" y="114" width="11" height="11" fill="#161b22" rx="2"/>
  <rect x="248" y="128" width="11" height="11" fill="#161b22" rx="2"/>
  <rect x="248" y="142" width="11" height="11" fill="#161b22" rx="2"/>
  <rect x="248" y="156" width="11" height="11" fill="#161b22" rx="2"/>
  <rect x="262" y="72" width="11" height="11" fill="#161b22" rx="2"/>
  <rect x="262" y="86" width="11" height="11" fill="#161b22" rx="2"/>
  <rect x="262" y="100" width="11" height="11" fill="#161b22" rx="2"/>
  <rect x="262" y="114" width="11" height="11" fill="#161b22" rx="2"/>
  <rect x="262" y="128" width="11" height="11" fill="#161b22" rx="2"/>
  <rect x="262" y="142" width="11" height="11" fill="#161b22" rx="2"/>
  <rect x="262" y="156" width="11" height="11" fill="#161b22" rx="2"/>
  <rect x="276" y="72" width="11" height="11" fill="#161b22" rx="2"/>
  <rect x="276" y="86" width="11" height="11" fill="#161b22" rx="2"/>
  <rect x="276" y="100" width="11" height="11" fill="#161b22" rx="2"/>
  <rect x="276" y="114" width="11" height="11" fill="#161b22" rx="2"/>
  <rect x="276" y="128" width="11" height="11" fill="#161b22" rx="2"/>
  <rect x="276" y="142" width="11" height="11" fill="#161b22" rx="2"/>
  <rect x="276" y="156" width="11" height="11" fill="#161b22" rx="2"/>
  <rect x="290" y="72" width="11" height="11" fill="#161b22" rx="2"/>
  <rect x="290" y="86" width="11" height="11" fill="#161b22" rx="2"/>
  <rect x="290" y="100" width="11" height="11" fill="#161b22" rx="2"/>
  <rect x="290" y="114" width="11" height="11" fill="#161b22" rx="2"/>
  <rect x="290" y="128" width="11" height="11" fill="#161b22" rx="2"/>
  <rect x="290" y="142" width="11" height="11" fill="#161b22" rx="2"/>
  <rect x="290" y="156" width="11" height="11" fill="#161b22" rx="2"/>
  <rect x="304" y="72" width="11" height="11" fill="#161b22" rx="2"/>
  <rect x="304" y="86" width="11" height="11" fill="#161b22" rx="2"/>
  <rect x="304" y="100" width="11" height="11" fill="#161b22" rx="2"/>
  <rect x="304" y="114" width="11" height="11" fill="#161b22" rx="2"/>
  <rect x="304" y="128" width="11" height="11" fill="#161b22" rx="2"/>
  <rect x="304" y="142" width="11" height="11" fill="#161b22" rx="2"/>
  <rect x="304" y="156" width="11" height="11" fill="#161b22" rx="2"/>
  <rect x="318" y="72" width="11" height="11" fill="#161b22" rx="2"/>
  <rect x="318" y="86" width="11" height="11" fill="#161b22" rx="2"/>
  <rect x="318" y="100" width="11" height="11" fill="#161b22" rx="2"/>
  <rect x="318" y="114" width="11" height="11" fill="#161b22" rx="2"/>
  <rect x="318" y="128" width="11" height="11" fill="#161b22" rx="2"/>
  <rect x="318" y="142" width="11" height="11" fill="#161b22" rx="2"/>
  <rect x="318" y="156" width="11" height="11" fill="#161b22" rx="2"/>
  <rect x="332" y="72" width="11" height="11" fill="#161b22" rx="2"/>
  <rect x="332" y="86" width="11" height="11" fill="#161b22" rx="2"/>
  <rect x="332" y="100" width="11" height="11" fill="#161b22" rx="2"/>
  <rect x="332" y="114" width="11" height="11" fill="#161b22" rx="2"/>
  <rect x="332" y="128" width="11" height="11" fill="#161b22" rx="2"/>
  <rect x="332" y="142" width="11" height="11" fill="#161b22" rx="2"/>
  <rect x="332" y="156" width="11" height="11" fill="#161b22" rx="2"/>
  <rect x="346" y="72" width="11" height="11" fill="#161b22" rx="2"/>
  <rect x="346" y="86" width="11" height="11" fill="#161b22" rx="2"/>
  <rect x="346" y="100" width="11" height="11" fill="#161b22" rx="2"/>
  <rect x="346" y="114" width="11" height="11" fill="#161b22" rx="2"/>
  <rect x="346" y="128" width="11" height="11" fill="#161b22" rx="2"/>
  <rect x="346" y="142" width="11" height="11" fill="#161b22" rx="2"/>
  <rect x="346" y="156" width="11" height="11" fill="#161b22" rx="2"/>
  <rect x="360" y="72" width="11" height="11" fill="#161b22" rx="2"/>
  <rect x="360" y="86" width="11" height="11" fill="#161b22" rx="2"/>
  <rect x="360" y="100" width="11" height="11" fill="#161b22" rx="2"/>
  <rect x="360" y="114" width="11" height="11" fill="#161b22" rx="2"/>
  <rect x="360" y="128" width="11" height="11" fill="#161b22" rx="2"/>
  <rect x="360" y="142" width="11" height="11" fill="#161b22" rx="2"/>
  <rect x="360" y="156" width="11" height="11" fill="#161b22" rx="2"/>
  <rect x="374" y="72" width="11" height="11" fill="#161b22" rx="2"/>
  <rect x="374" y="86" width="11" height="11" fill="#161b22" rx="2"/>
  <rect x="374" y="100" width="11" height="11" fill="#161b22" rx="2"/>
  <rect x="374" y="114" width="11" height="11" fill="#161b22" rx="2"/>
  <rect x="374" y="128" width="11" height="11" fill="#161b22" rx="2"/>
  <rect x="374" y="142" width="11" height="11" fill="#161b22" rx="2"/>
  <rect x="374" y="156" width="11" height="11" fill="#161b22" rx="2"/>
  <rect x="388" y="72" width="11" height="11" fill="#161b22" rx="2"/>
  <rect x="388" y="86" width="11" height="11" fill="#161b22" rx="2"/>
  <rect x="388" y="100" width="11" height="11" fill="#161b22" rx="2"/>
  <rect x="388" y="114" width="11" height="11" fill="#161b22" rx="2"/>
  <rect x="388" y="128" width="11" height="11" fill="#161b22" rx="2"/>
  <rect x="388" y="142" width="11" height="11" fill="#161b22" rx="2"/>
  <rect x="388" y="156" width="11" height="11" fill="#161b22" rx="2"/>
  <rect x="402" y="72" width="11" height="11" fill="#161b22" rx="2"/>
  <rect x="402" y="86" width="11" height="11" fill="#161b22" rx="2"/>
  <rect x="402" y="100" width="11" height="11" fill="#161b22" rx="2"/>
  <rect x="402" y="114" width="11" height="11" fill="#161b22" rx="2"/>
  <rect x="402" y="128" width="11" height="11" fill="#161b22" rx="2"/>
  <rect x="402" y="142" width="11" height="11" fill="#161b22" rx="2"/>
  <rect x="402" y="156" width="11" height="11" fill="#161b22" rx="2"/>
  <rect x="416" y="72" width="11" height="11" fill="#161b22" rx="2"/>
  <rect x="416" y="86" width="11" height="11" fill="#161b22" rx="2"/>
  <rect x="416" y="100" width="11" height="11" fill="#161b22" rx="2"/>
  <rect x="416" y="114" width="11" height="11" fill="#161b22" rx="2"/>
  <rect x="416" y="128" width="11" height="11" fill="#161b22" rx="2"/>
  <rect x="416" y="142" width="11" height="11" fill="#161b22" rx="2"/>
  <rect x="416" y="156" width="11" height="11" fill="#161b22" rx="2"/>
  <rect x="430" y="72" width="11" height="11" fill="#161b22" rx="2"/>
  <rect x="430" y="86" width="11" height="11" fill="#161b22" rx="2"/>
  <rect x="430" y="100" width="11" height="11" fill="#161b22" rx="2"/>
  <rect x="430" y="114" width="11" height="11" fill="#161b22" rx="2"/>
  <rect x="430" y="128" width="11" height="11" fill="#161b22" rx="2"/>
  <rect x="430" y="142" width="11" height="11" fill="#161b22" rx="2"/>
  <rect x="430" y="156" width="11" height="11" fill="#161b22" rx="2"/>
  <rect x="444" y="72" width="11" height="11" fill="#161b22" rx="2"/>
  <rect x="444" y="86" width="11" height="11" fill="#161b22" rx="2"/>
  <rect x="444" y="100" width="11" height="11" fill="#161b22" rx="2"/>
  <rect x="444" y="114" width="11" height="11" fill="#161b22" rx="2"/>
  <rect x="444" y="128" width="11" height="11" fill="#161b22" rx="2"/>
  <rect x="444" y="142" width="11" height="11" fill="#161b22" rx="2"/>
  <rect x="444" y="156" width="11" height="11" fill="#161b22" rx="2"/>
  <rect x="458" y="72" width="11" height="11" fill="#161b22" rx="2"/>
  <rect x="458" y="86" width="11" height="11" fill="#161b22" rx="2"/>
  <rect x="458" y="100" width="11" height="11" fill="#161b22" rx="2"/>
  <rect x="458" y="114" width="11" height="11" fill="#161b22" rx="2"/>
  <rect x="458" y="128" width="11" height="11" fill="#161b22" rx="2"/>
  <rect x="458" y="142" width="11" height="11" fill="#161b22" rx="2"/>
  <rect x="458" y="156" width="11" height="11" fill="#161b22" rx="2"/>
  <rect x="472" y="72" width="11" height="11" fill="#161b22" rx="2"/>
  <rect x="472" y="86" width="11" height="11" fill="#161b22" rx="2"/>
  <rect x="472" y="100" width="11" height="11" fill="#161b22" rx="2"/>
  <rect x="472" y="114" width="11" height="11" fill="#161b22" rx="2"/>
  <rect x="472" y="128" width="11" height="11" fill="#161b22" rx="2"/>
  <rect x="472" y="142" width="11" height="11" fill="#161b22" rx="2"/>
  <rect x="472" y="156" width="11" height="11" fill="#161b22" rx="2"/>
  <rect x="486" y="72" width="11" height="11" fill="#161b22" rx="2"/>
  <rect x="486" y="86" width="11" height="11" fill="#161b22" rx="2"/>
  <rect x="486" y="100" width="11" height="11" fill="#161b22" rx="2"/>
  <rect x="486" y="114" width="11" height="11" fill="#161b22" rx="2"/>
  <rect x="486" y="128" width="11" height="11" fill="#161b22" rx="2"/>
  <rect x="486" y="142" width="11" height="11" fill="#161b22" rx="2"/>
  <rect x="486" y="156" width="11" height="11" fill="#161b22" rx="2"/>
  <rect x="500" y="72" width="11" height="11" fill="#161b22" rx="2"/>
  <rect x="500" y="86" width="11" height="11" fill="#161b22" rx="2"/>
  <rect x="500" y="100" width="11" height="11" fill="#161b22" rx="2"/>
  <rect x="500" y="114" width="11" height="11" fill="#161b22" rx="2"/>
  <rect x="500" y="128" width="11" height="11" fill="#161b22" rx="2"/>
  <rect x="500" y="142" width="11" height="11" fill="#161b22" rx="2"/>
  <rect x="500" y="156" width="11" height="11" fill="#161b22" rx="2"/>
  <rect x="514" y="72" width="11" height="11" fill="#161b22" rx="2"/>
  <rect x="514" y="86" width="11" height="11" fill="#161b22" rx="2"/>
  <rect x="514" y="100" width="11" height="11" fill="#161b22" rx="2"/>
  <rect x="514" y="114" width="11" height="11" fill="#161b22" rx="2"/>
  <rect x="514" y="128" width="11" height="11" fill="#161b22" rx="2"/>
  <rect x="514" y="142" width="11" height="11" fill="#161b22" rx="2"/>
  <rect x="514" y="156" width="11" height="11" fill="#161b22" rx="2"/>
  <rect x="528" y="72" width="11" height="11" fill="#161b22" rx="2"/>
  <rect x="528" y="86" width="11" height="11" fill="#161b22" rx="2"/>
  <rect x="528" y="100" width="11" height="11" fill="#161b22" rx="2"/>
  <rect x="528" y="114" width="11" height="11" fill="#161b22" rx="2"/>
  <rect x="528" y="128" width="11" height="11" fill="#161b22" rx="2"/>
  <rect x="528" y="142" width="11" height="11" fill="#161b22" rx="2"/>
  <rect x="528" y="156" width="11" height="11" fill="#161b22" rx="2"/>
  <rect x="542" y="72" width="11" height="11" fill="#161b22" rx="2"/>
  <rect x="542" y="86" width="11" height="11" fill="#161b22" rx="2"/>
  <rect x="542" y="100" width="11" height="11" fill="#161b22" rx="2"/>
  <rect x="542" y="114" width="11" height="11" fill="#161b22" rx="2"/>
  <rect x="542" y="128" width="11" height="11" fill="#161b22" rx="2"/>
  <rect x="542" y="142" width="11" height="11" fill="#161b22" rx="2"/>
  <rect x="542" y="156" width="11" height="11" fill="#161b22" rx="2"/>
  <rect x="556" y="72" width="11" height="11" fill="#161b22" rx="2"/>
  <rect x="556" y="86" width="11" height="11" fill="#161b22" rx="2"/>
  <rect x="556" y="100" width="11" height="11" fill="#161b22" rx="2"/>
  <rect x="556" y="114" width="11" height="11" fill="#161b22" rx="2"/>
  <rect x="556" y="128" width="11" height="11" fill="#161b22" rx="2"/>
  <rect x="556" y="142" width="11" height="11" fill="#161b22" rx="2"/>
  <rect x="556" y="156" width="11" height="11" fill="#161b22" rx="2"/>
  <rect x="570" y="72" width="11" height="11" fill="#161b22" rx="2"/>
  <rect x="570" y="86" width="11" height="11" fill="#161b22" rx="2"/>
  <rect x="570" y="100" width="11" height="11" fill="#161b22" rx="2"/>
  <rect x="570" y="114" width="11" height="11" fill="#161b22" rx="2"/>
  <rect x="570" y="128" width="11" height="11" fill="#161b22" rx="2"/>
  <rect x="570" y="142" width="11" height="11" fill="#161b22" rx="2"/>
  <rect x="570" y="156" width="11" height="11" fill="#161b22" rx="2"/>
  <rect x="584" y="72" width="11" height="11" fill="#161b22" rx="2"/>
  <rect x="584" y="86" width="11" height="11" fill="#161b22" rx="2"/>
  <rect x="584" y="100" width="11" height="11" fill="#161b22" rx="2"/>
  <rect x="584" y="114" width="11" height="11" fill="#161b22" rx="2"/>
  <rect x="584" y="128" width="11" height="11" fill="#161b22" rx="2"/>
  <rect x="584" y="142" width="11" height="11" fill="#161b22" rx="2"/>
  <rect x="584" y="156" width="11" height="11" fill="#161b22" rx="2"/>
  <rect x="598" y="72" width="11" height="11" fill="#161b22" rx="2"/>
  <rect x="598" y="86" width="11" height="11" fill="#161b22" rx="2"/>
  <rect x="598" y="100" width="11" height="11" fill="#161b22" rx="2"/>
  <rect x="598" y="114" width="11" height="11" fill="#161b22" rx="2"/>
  <rect x="598" y="128" width="11" height="11" fill="#161b22" rx="2"/>
  <rect x="598" y="142" width="11" height="11" fill="#161b22" rx="2"/>
  <rect x="598" y="156" width="11" height="11" fill="#161b22" rx="2"/>
  <rect x="612" y="72" width="11" height="11" fill="#161b22" rx="2"/>
  <rect x="612" y="86" width="11" height="11" fill="#161b22" rx="2"/>
  <rect x="612" y="100" width="11" height="11" fill="#161b22" rx="2"/>
  <rect x="612" y="114" width="11" height="11" fill="#161b22" rx="2"/>
  <rect x="612" y="128" width="11" height="11" fill="#161b22" rx="2"/>
  <rect x="612" y="142" width="11" height="11" fill="#161b22" rx="2"/>
  <rect x="612" y="156" width="11" height="11" fill="#161b22" rx="2"/>
  <rect x="626" y="72" width="11" height="11" fill="#161b22" rx="2"/>
  <rect x="626" y="86" width="11" height="11" fill="#161b22" rx="2"/>
  <rect x="626" y="100" width="11" height="11" fill="#161b22" rx="2"/>
  <rect x="626" y="114" width="11" height="11" fill="#161b22" rx="2"/>
  <rect x="626" y="128" width="11" height="11" fill="#161b22" rx="2"/>
  <rect x="626" y="142" width="11" height="11" fill="#161b22" rx="2"/>
  <rect x="626" y="156" width="11" height="11" fill="#161b22" rx="2"/>
  <rect x="640" y="72" width="11" height="11" fill="#161b22" rx="2"/>
  <rect x="640" y="86" width="11" height="11" fill="#161b22" rx="2"/>
  <rect x="640" y="100" width="11" height="11" fill="#161b22" rx="2"/>
  <rect x="640" y="114" width="11" height="11" fill="#161b22" rx="2"/>
  <rect x="640" y="128" width="11" height="11" fill="#161b22" rx="2"/>
  <rect x="640" y="142" width="11" height="11" fill="#161b22" rx="2"/>
  <rect x="640" y="156" width="11" height="11" fill="#161b22" rx="2"/>
  <rect x="654" y="72" width="11" height="11" fill="#161b22" rx="2"/>
  <rect x="654" y="86" width="11" height="11" fill="#161b22" rx="2"/>
  <rect x="654" y="100" width="11" height="11" fill="#161b22" rx="2"/>
  <rect x="654" y="114" width="11" height="11" fill="#161b22" rx="2"/>
  <rect x="654" y="128" width="11" height="11" fill="#161b22" rx="2"/>
  <rect x="654" y="142" width="11" height="11" fill="#161b22" rx="2"/>
  <rect x="654" y="156" width="11" height="11" fill="#161b22" rx="2"/>
  <rect x="668" y="72" width="11" height="11" fill="#161b22" rx="2"/>
  <rect x="668" y="86" width="11" height="11" fill="#161b22" rx="2"/>
  <rect x="668" y="100" width="11" height="11" fill="#161b22" rx="2"/>
  <rect x="668" y="114" width="11" height="11" fill="#161b22" rx="2"/>
  <rect x="668" y="128" width="11" height="11" fill="#161b22" rx="2"/>
  <rect x="668" y="142" width="11" height="11" fill="#161b22" rx="2"/>
  <rect x="668" y="156" width="11" height="11" fill="#161b22" rx="2"/>
  <rect x="682" y="72" width="11" height="11" fill="#161b22" rx="2"/>
  <rect x="682" y="86" width="11" height="11" fill="#161b22" rx="2"/>
  <rect x="682" y="100" width="11" height="11" fill="#161b22" rx="2"/>
  <rect x="682" y="114" width="11" height="11" fill="#161b22" rx="2"/>
  <rect x="682" y="128" width="11" height="11" fill="#161b22" rx="2"/>
  <rect x="682" y="142" width="11" height="11" fill="#161b22" rx="2"/>
  <rect x="682" y="156" width="11" height="11" fill="#161b22" rx="2"/>
  <rect x="696" y="72" width="11" height="11" fill="#161b22" rx="2"/>
  <rect x="696" y="86" width="11" height="11" fill="#161b22" rx="2"/>
  <rect x="696" y="100" width="11" height="11" fill="#161b22" rx="2"/>
  <rect x="696" y="114" width="11" height="11" fill="#161b22" rx="2"/>
  <rect x="696" y="128" width="11" height="11" fill="#161b22" rx="2"/>
  <rect x="696" y="142" width="11" height="11" fill="#161b22" rx="2"/>
  <rect x="696" y="156" width="11" height="11" fill="#161b22" rx="2"/>
  <rect x="710" y="72" width="11" height="11" fill="#161b22" rx="2"/>
  <rect x="710" y="86" width="11" height="11" fill="#161b22" rx="2"/>
  <rect x="710" y="100" width="11" height="11" fill="#161b22" rx="2"/>
  <rect x="710" y="114" width="11" height="11" fill="#161b22" rx="2"/>
  <rect x="710" y="128" width="11" height="11" fill="#161b22" rx="2"/>
  <rect x="710" y="142" width="11" height="11" fill="#161b22" rx="2"/>
  <rect x="710" y="156" width="11" height="11" fill="#161b22" rx="2"/>
  <rect x="724" y="72" width="11" height="11" fill="#161b22" rx="2"/>
  <rect x="724" y="86" width="11" height="11" fill="#161b22" rx="2"/>
  <rect x="724" y="100" width="11" height="11" fill="#161b22" rx="2"/>
  <rect x="724" y="114" width="11" height="11" fill="#161b22" rx="2"/>
  <rect x="724" y="128" width="11" height="11" fill="#161b22" rx="2"/>
  <rect x="724" y="142" width="11" height="11" fill="#161b22" rx="2"/>
  <rect x="724" y="156" width="11" height="11" fill="#161b22" rx="2"/>
  <rect x="738" y="72" width="11" height="11" fill="#161b22" rx="2"/>
  <rect x="738" y="86" width="11" height="11" fill="#161b22" rx="2"/>
  <rect x="738" y="100" width="11" height="11" fill="#161b22" rx="2"/>
  <rect x="738" y="114" width="11" height="11" fill="#161b22" rx="2"/>
  <rect x="738" y="128" width="11" height="11" fill="#161b22" rx="2"/>
  <rect x="738" y="142" width="11" height="11" fill="#161b22" rx="2"/>
  <rect x="738" y="156" width="11" height="11" fill="#161b22" rx="2"/>
  <rect x="752" y="72" width="11" height="11" fill="#161b22" rx="2"/>
  <rect x="752" y="86" width="11" height="11" fill="#161b22" rx="2"/>
  <rect x="752" y="100" width="11" height="11" fill="#161b22" rx="2"/>
  <rect x="752" y="114" width="11" height="11" fill="#161b22" rx="2"/>
  <rect x="752" y="128" width="11" height="11" fill="#161b22" rx="2"/>
  <rect x="752" y="142" width="11" height="11" fill="#161b22" rx="2"/>
  <rect x="752" y="156" width="11" height="11" fill="#161b22" rx="2"/>
  <rect x="766" y="72" width="11" height="11" fill="#161b22" rx="2"/>
  <rect x="766" y="86" width="11" height="11" fill="#161b22" rx="2"/>
  <rect x="766" y="100" width="11" height="11" fill="#161b22" rx="2"/>
  <rect x="766" y="114" width="11" height="11" fill="#161b22" rx="2"/>
  <rect x="766" y="128" width="11" height="11" fill="#161b22" rx="2"/>
  <rect x="766" y="142" width="11" height="11" fill="#161b22" rx="2"/>
  <rect x="766" y="156" width="11" height="11" fill="#161b22" rx="2"/>
  <rect x="780" y="72" width="11" height="11" fill="#161b22" rx="2"/>
  <rect x="780" y="86" width="11" height="11" fill="#161b22" rx="2"/>
  <rect x="780" y="100" width="11" height="11" fill="#161b22" rx="2"/>
  <rect x="780" y="114" width="11" height="11" fill="#161b22" rx="2"/>
  <rect x="780" y="128" width="11" height="11" fill="#161b22" rx="2"/>

  <text x="52" y="192" font-family="ui-monospace, SFMono-Regular, 'SF Mono', Menlo, Consolas, monospace" font-size="10" fill="#8b949e">0% malam  ·  0% weekend  ·  pola yang cukup manusiawi</text>
</svg>