<svg width="800" height="440" viewBox="0 0 800 440" xmlns="http://www.w3.org/2000/svg">
  <defs>
    <linearGradient id="lg1" x1="0%" y1="0%" x2="100%" y2="0%">
      <stop offset="0%" style="stop-color:#388bfd;stop-opacity:1"/>
      <stop offset="100%" style="stop-color:#a371f7;stop-opacity:0"/>
    </linearGradient>
  </defs>
  <rect width="800" height="440" fill="transparent" rx="12"/>
  <rect x="1" y="1" width="798" height="438" fill="none" stroke="transparent" stroke-width="1" rx="11"/>

  <text x="36" y="48" font-family="ui-monospace, SFMono-Regular, 'SF Mono', Menlo, Consolas, monospace" font-size="13" fill="#cad6e6" letter-spacing="3">THE NUMBERS</text>
  <text x="764" y="48" font-family="ui-monospace, SFMono-Regular, 'SF Mono', Menlo, Consolas, monospace" font-size="13" fill="#cad6e6" letter-spacing="2" text-anchor="end">LAST 365 DAYS</text>
  <rect x="36" y="58" width="220" height="1" fill="url(#lg1)"/>

  <!-- row 1: total / peak hour / most active day -->
  <text x="145" y="148" font-family="ui-monospace, SFMono-Regular, 'SF Mono', Menlo, Consolas, monospace" font-size="58" font-weight="700"
        fill="#e6edf3" text-anchor="middle">1,011</text>
  <text x="145" y="168" font-family="ui-monospace, SFMono-Regular, 'SF Mono', Menlo, Consolas, monospace" font-size="10" fill="#cad6e6"
        text-anchor="middle" letter-spacing="3">COMMITS</text>

  <line x1="272" y1="100" x2="272" y2="188" stroke="transparent" stroke-width="1"/>

  <text x="450" y="140" font-family="ui-monospace, SFMono-Regular, 'SF Mono', Menlo, Consolas, monospace" font-size="46" font-weight="700"
        fill="#388bfd" text-anchor="middle">3 PM</text>
  <text x="450" y="162" font-family="ui-monospace, SFMono-Regular, 'SF Mono', Menlo, Consolas, monospace" font-size="10" fill="#cad6e6"
        text-anchor="middle" letter-spacing="3">PEAK HOUR</text>
  <text x="450" y="180" font-family="ui-monospace, SFMono-Regular, 'SF Mono', Menlo, Consolas, monospace" font-size="10" fill="#a371f7"
        text-anchor="middle">— afternoon grind —</text>

  <line x1="590" y1="100" x2="590" y2="188" stroke="transparent" stroke-width="1"/>

  <text x="700" y="140" font-family="ui-monospace, SFMono-Regular, 'SF Mono', Menlo, Consolas, monospace" font-size="26" font-weight="700"
        fill="#f0883e" text-anchor="middle">Tuesday</text>
  <text x="700" y="162" font-family="ui-monospace, SFMono-Regular, 'SF Mono', Menlo, Consolas, monospace" font-size="10" fill="#cad6e6"
        text-anchor="middle" letter-spacing="2">MOST ACTIVE</text>

  <!-- separator -->
  <rect x="36" y="198" width="728" height="1" fill="transparent"/>

  <!-- vibe text -->
  <text x="400" y="224" font-family="ui-monospace, SFMono-Regular, 'SF Mono', Menlo, Consolas, monospace" font-size="15" fill="#cad6e6"
        text-anchor="middle" font-style="italic">&quot;coding through work hours.&quot;</text>

  <!-- row 2: night% and weekend% — no glow, tegas -->
  <rect x="36" y="238" width="728" height="1" fill="transparent" opacity="0.4"/>

  <text x="200" y="282" font-family="ui-monospace, SFMono-Regular, 'SF Mono', Menlo, Consolas, monospace" font-size="36" font-weight="700"
        fill="#3fb950" text-anchor="middle">19%</text>
  <text x="200" y="300" font-family="ui-monospace, SFMono-Regular, 'SF Mono', Menlo, Consolas, monospace" font-size="12" fill="#cad6e6"
        text-anchor="middle" letter-spacing="2">NIGHT COMMITS</text>

  <line x1="400" y1="246" x2="400" y2="310" stroke="transparent" stroke-width="1"/>

  <text x="600" y="282" font-family="ui-monospace, SFMono-Regular, 'SF Mono', Menlo, Consolas, monospace" font-size="36" font-weight="700"
        fill="#f0883e" text-anchor="middle">30%</text>
  <text x="600" y="300" font-family="ui-monospace, SFMono-Regular, 'SF Mono', Menlo, Consolas, monospace" font-size="12" fill="#cad6e6"
        text-anchor="middle" letter-spacing="2">WEEKEND COMMITS</text>

  <!-- separator + hourly bar chart -->
  <rect x="36" y="316" width="728" height="1" fill="transparent"/>
  <text x="36" y="336" font-family="ui-monospace, SFMono-Regular, 'SF Mono', Menlo, Consolas, monospace" font-size="10" fill="#cad6e6" letter-spacing="2">HOURLY ACTIVITY</text>
  <rect x="36" y="342" width="728" height="1" fill="transparent" opacity="0.35"/>
  <rect x="43" y="367" width="24" height="3" fill="transparent" rx="3" opacity="0.65"/>
  <rect x="73" y="368" width="24" height="2" fill="transparent" rx="3" opacity="0.65"/>
  <rect x="103" y="367" width="24" height="3" fill="transparent" rx="3" opacity="0.65"/>
  <rect x="133" y="368" width="24" height="2" fill="transparent" rx="3" opacity="0.65"/>
  <rect x="163" y="366" width="24" height="4" fill="transparent" rx="3" opacity="0.65"/>
  <rect x="193" y="358" width="24" height="12" fill="transparent" rx="3" opacity="0.65"/>
  <rect x="223" y="359" width="24" height="11" fill="transparent" rx="3" opacity="0.65"/>
  <rect x="253" y="365" width="24" height="5" fill="transparent" rx="3" opacity="0.65"/>
  <rect x="283" y="365" width="24" height="5" fill="transparent" rx="3" opacity="0.65"/>
  <rect x="313" y="362" width="24" height="8" fill="transparent" rx="3" opacity="0.65"/>
  <rect x="343" y="359" width="24" height="11" fill="transparent" rx="3" opacity="0.65"/>
  <rect x="373" y="359" width="24" height="11" fill="transparent" rx="3" opacity="0.65"/>
  <rect x="403" y="363" width="24" height="7" fill="transparent" rx="3" opacity="0.65"/>
  <rect x="433" y="351" width="24" height="19" fill="transparent" rx="3" opacity="0.65"/>
  <rect x="463" y="344" width="24" height="26" fill="transparent" rx="3" opacity="0.65"/>
  <rect x="493" y="342" width="24" height="28" fill="#388bfd" rx="3" opacity="1"/>
  <rect x="523" y="352" width="24" height="18" fill="transparent" rx="3" opacity="0.65"/>
  <rect x="553" y="364" width="24" height="6" fill="transparent" rx="3" opacity="0.65"/>
  <rect x="583" y="360" width="24" height="10" fill="transparent" rx="3" opacity="0.65"/>
  <rect x="613" y="354" width="24" height="16" fill="transparent" rx="3" opacity="0.65"/>
  <rect x="643" y="358" width="24" height="12" fill="transparent" rx="3" opacity="0.65"/>
  <rect x="673" y="362" width="24" height="8" fill="transparent" rx="3" opacity="0.65"/>
  <rect x="703" y="359" width="24" height="11" fill="transparent" rx="3" opacity="0.65"/>
  <rect x="733" y="362" width="24" height="8" fill="transparent" rx="3" opacity="0.65"/>
  <text x="55" y="385" font-family="ui-monospace, SFMono-Regular, 'SF Mono', Menlo, Consolas, monospace" font-size="12" fill="#cad6e6" text-anchor="middle">00</text>
  <text x="235" y="385" font-family="ui-monospace, SFMono-Regular, 'SF Mono', Menlo, Consolas, monospace" font-size="12" fill="#cad6e6" text-anchor="middle">06</text>
  <text x="415" y="385" font-family="ui-monospace, SFMono-Regular, 'SF Mono', Menlo, Consolas, monospace" font-size="12" fill="#cad6e6" text-anchor="middle">12</text>
  <text x="595" y="385" font-family="ui-monospace, SFMono-Regular, 'SF Mono', Menlo, Consolas, monospace" font-size="12" fill="#cad6e6" text-anchor="middle">18</text>
  <text x="745" y="385" font-family="ui-monospace, SFMono-Regular, 'SF Mono', Menlo, Consolas, monospace" font-size="12" fill="#cad6e6" text-anchor="middle">23</text>

</svg>